<?xml version="1.0" encoding="UTF-8"?>
<svg width="395px" height="33px" viewBox="0 0 395 33" version="1.1" xmlns="http://www.w3.org/2000/svg" xmlns:xlink="http://www.w3.org/1999/xlink">
    <title>Group 3</title>
    <defs>
        <polygon id="path-1" points="0.00011524425 0.0002325575 218.48125 0.0002325575 218.48125 20.6335626 0.00011524425 20.6335626"></polygon>
    </defs>
    <g id="Desktop-Examples" stroke="none" stroke-width="1" fill="none" fill-rule="evenodd">
        <g id="UR-Microsite" transform="translate(-110.000000, -39.000000)">
            <g id="Group-3" transform="translate(110.000000, 40.000000)">
                <g id="UR-Logo" transform="translate(176.000000, 5.000000)">
                    <mask id="mask-2" fill="white">
                        <use xlink:href="#path-1"></use>
                    </mask>
                    <g id="Clip-2"></g>
                    <path d="M57.064,1.321735 L54.6669,12.601845 C53.5675,17.5619575 49.17899,19.51189 44.69023,19.51189 C40.1957,19.51189 36.64157,17.5619575 37.640735,12.601845 L40.037815,1.321735 L44.972575,1.321735 L42.627355,12.35522 C42.224,14.62784 43.103315,16.05802 45.42318,16.05802 C47.740745,16.05802 49.23085,14.62784 49.78287,12.35522 L52.12695,1.321735 L57.064,1.321735" id="Fill-1" fill="#FFFFFF" mask="url(#mask-2)"></path>
                    <path d="M62.25405,8.109165 C63.5805,6.874895 64.91735,6.378195 66.49385,6.378195 C69.1629,6.378195 70.7683,8.109165 70.18515,10.847365 L68.42535,19.140343 L63.73605,19.140343 L65.28725,11.85921 C65.4901,10.652605 65.4751,9.34343 64.0161,9.34343 C61.69855,9.34343 61.45425,11.879955 61.4208,12.02977 L59.9134,19.140343 L55.22415,19.140343 L57.17865,9.93348 C57.4126,8.823675 57.54745,8.078045 57.7111,6.74813 L62.4684,6.74813 L62.25405,8.109165" id="Fill-3" fill="#FFFFFF" mask="url(#mask-2)"></path>
                    <path d="M70.4494,19.1406885 L73.08155,6.748475 L77.772,6.748475 L75.1341,19.1406885 L70.4494,19.1406885 Z M73.50565,4.62913 L74.21095,1.32162 L78.94635,1.32162 L78.2445,4.62913 L73.50565,4.62913 Z" id="Fill-4" fill="#FFFFFF" mask="url(#mask-2)"></path>
                    <path d="M81.11965,6.74859 L81.51605,4.87587 L86.58105,3.0965 L85.80775,6.74859 L88.5206,6.74859 L87.89485,9.71728 L85.182,9.71728 L84.13555,14.62784 C84.07105,14.94361 83.5317,16.5570275 84.61615,16.5570275 C85.2327,16.5570275 85.87345,16.5570275 86.4301,16.475204 L85.84005,19.2595055 C84.736,19.4600305 83.9604,19.5130425 83.2747,19.5130425 C80.0859,19.5130425 78.2639,19.0705045 79.31605,15.26629 L80.49155,9.71728 L78.07605,9.71728 L78.70295,6.74859 L81.11965,6.74859" id="Fill-5" fill="#FFFFFF" mask="url(#mask-2)"></path>
                    <path d="M91.7651,13.88048 C91.4032,15.488135 91.52885,16.8664585 93.2794,16.8664585 C94.5886,16.8664585 95.5301,16.2545115 95.95075,15.09746 L100.2943,15.09746 C99.8057,16.699354 98.5426,17.852949 97.21155,18.545567 C95.97955,19.234728 94.5471,19.5124665 93.08925,19.5124665 C88.13145,19.5124665 86.6079,17.383905 87.63935,12.524055 C88.4737,8.6046 91.8815,6.37808 95.60505,6.37808 C100.64005,6.37808 101.63,9.273015 100.6481,13.88048 L91.7651,13.88048 Z M96.74365,11.363545 C96.8831,10.7055 96.8266,10.037085 96.57195,9.51733 C96.30685,8.995275 95.8378,8.67605 95.1095,8.726755 C93.46725,8.801665 92.82075,9.956415 92.4001,11.363545 L96.74365,11.363545 L96.74365,11.363545 Z" id="Fill-6" fill="#FFFFFF" mask="url(#mask-2)"></path>
                    <path d="M110.3313,17.3118775 L110.2345,17.3118775 C109.26875,18.8192725 107.3983,19.5130425 105.6443,19.5130425 C102.119,19.5130425 101.1947,16.0833735 101.847,12.99137 C102.5454,9.71728 104.90905,6.378655 108.58075,6.378655 C110.1377,6.378655 111.5713,6.91915 112.21555,8.208735 L112.2628,8.208735 L113.7241,1.320585 L118.41105,1.320585 L114.63335,19.1396515 L110.06855,19.1396515 L110.3313,17.3118775 Z M106.66765,12.94758 C106.32195,14.57137 106.2205,16.7944305 108.14625,16.7944305 C110.0697,16.7944305 110.9098,14.57137 111.2567,12.94758 C111.6105,11.294975 111.8306,9.09842 109.78155,9.09842 C107.73485,9.09842 107.0203,11.294975 106.66765,12.94758 L106.66765,12.94758 Z" id="Fill-7" fill="#FFFFFF" mask="url(#mask-2)"></path>
                    <path d="M128.64155,19.1519825 L123.70905,19.1519825 L127.4914,1.33407 L135.7302,1.33407 C138.7404,1.33407 142.47085,2.15115 141.663,5.928855 C141.0948,8.59215 138.75075,9.99698 136.19695,10.29085 L136.1785,10.395725 C139.31545,10.46833 139.569,12.074835 139.30625,14.83839 C139.1126,16.318126 139.0861,17.720649 139.20365,19.1519825 L133.8471,19.1519825 C133.8356,17.918869 133.96005,16.6338955 134.10525,15.383495 C134.35995,13.231885 134.45445,12.345655 131.93635,12.345655 L130.089,12.345655 L128.64155,19.1519825 Z M132.7477,8.88948 C134.3277,8.88948 135.9042,8.664755 136.28915,6.84044 C136.6752,5.017275 135.19545,4.79716 133.6143,4.79716 L131.6886,4.79716 L130.81735,8.88948 L132.7477,8.88948 L132.7477,8.88948 Z" id="Fill-8" fill="#FFFFFF" mask="url(#mask-2)"></path>
                    <path d="M144.98005,13.895115 C144.61935,15.503925 144.74035,16.8914665 146.4909,16.8914665 C147.8047,16.8914665 148.74625,16.2703 149.1669,15.107485 L153.507,15.107485 C153.02065,16.710533 151.76335,17.872195 150.42995,18.562508 C149.19685,19.252821 147.7563,19.5213405 146.30535,19.5213405 C141.34065,19.5213405 139.824,17.400846 140.85315,12.544455 C141.6875,8.610015 145.0953,6.40078 148.82,6.40078 C153.85385,6.40078 154.8461,9.280735 153.86655,13.895115 L144.98005,13.895115 Z M149.95745,11.37703 C150.0992,10.715525 150.04505,10.050565 149.78345,9.534275 C149.52185,9.011065 149.05165,8.684925 148.3233,8.73909 C146.68335,8.8163 146.03685,9.97566 145.6162,11.37703 L149.95745,11.37703 L149.95745,11.37703 Z" id="Fill-9" fill="#FFFFFF" mask="url(#mask-2)"></path>
                    <path d="M161.03425,8.12276 C162.3596,6.8908 163.6987,6.39986 165.2787,6.39986 C167.94315,6.39986 169.54505,8.12276 168.9619,10.86212 L167.20445,19.1516365 L162.51515,19.1516365 L164.06405,11.87281 C164.2738,10.662745 164.2542,9.35818 162.7952,9.35818 C160.4788,9.35818 160.23565,11.899315 160.2045,12.050285 L158.68905,19.1516365 L154.0032,19.1516365 L155.9566,9.95169 C156.1963,8.840735 156.32885,8.09395 156.4902,6.765185 L161.24745,6.765185 L161.03425,8.12276" id="Fill-10" fill="#FFFFFF" mask="url(#mask-2)"></path>
                    <path d="M172.8997,6.765415 L173.2996,4.89039 L178.36345,3.109865 L177.58325,6.765415 L180.3007,6.765415 L179.6749,9.72719 L176.954,9.72719 L175.90875,14.636595 C175.8465,14.95928 175.30255,16.562329 176.3939,16.562329 C177.00585,16.562329 177.65005,16.562329 178.2136,16.489725 L177.6224,19.2774835 C176.5149,19.4733985 175.73585,19.5194965 175.049,19.5194965 C171.8648,19.5194965 170.03705,19.0792635 171.08805,15.277355 L172.267,9.72719 L169.84805,9.72719 L170.47955,6.765415 L172.8997,6.765415" id="Fill-11" fill="#FFFFFF" mask="url(#mask-2)"></path>
                    <path d="M186.59625,19.1519825 C186.58475,18.7636095 186.66195,18.3660165 186.8544,17.4751785 L186.80945,17.4751785 C186.05,18.3660165 184.74195,19.5196115 182.4244,19.5196115 C179.48685,19.5196115 178.2952,17.9442225 178.88295,15.40539 C179.56865,12.392905 182.59845,11.15864 186.64005,11.15864 L188.12555,11.15864 C188.3549,10.07189 188.9357,8.495345 187.04685,8.565645 C185.9002,8.61059 185.29515,9.72846 185.1626,10.46833 L180.7453,10.46833 C181.09565,8.71316 182.21815,7.701315 183.5976,7.13777 C185.01395,6.53965 186.6481,6.40136 188.0253,6.40136 C190.5457,6.40136 193.35305,7.4593 192.7088,10.245905 L191.35815,16.6131515 C191.24405,17.130598 191.22675,17.672246 191.085,19.1519825 L186.59625,19.1519825 Z M184.7293,16.809067 C186.753,16.809067 187.32115,14.906385 187.6784,13.256085 C186.68615,13.256085 185.7642,13.20999 185.05315,13.52576 C184.29365,13.87034 183.65405,14.322095 183.47085,15.179515 C183.2772,16.0715035 183.8396,16.809067 184.7293,16.809067 L184.7293,16.809067 Z" id="Fill-12" fill="#FFFFFF" mask="url(#mask-2)"></path>
                    <polygon id="Fill-13" fill="#FFFFFF" mask="url(#mask-2)" points="192.7873 19.1519825 194.386253 11.6309603 196.57535 1.33407 201.26005 1.33407 197.47775 19.1519825"></polygon>
                    <path d="M207.9001,10.59187 C207.9888,10.16777 207.99345,9.79899 207.8275,9.55352 C207.63965,9.28039 207.2789,9.10637 206.63815,9.10637 C205.94555,9.10637 205.4419,9.503965 205.2921,10.221935 C205.09965,11.135825 207.00695,11.085115 209.7486,12.001305 C211.1304,12.4692 211.9486,13.381935 211.52105,15.40562 C210.82265,18.6854735 207.55435,19.519842 204.71705,19.519842 C201.68955,19.519842 198.85915,18.907895 199.6843,15.13019 L204.1247,15.13019 C203.9737,15.50473 204.0025,15.9219165 204.2111,16.2446005 C204.4151,16.561522 204.75505,16.809297 205.20335,16.809297 C206.10805,16.809297 206.8548,16.464717 207.02075,15.672989 C207.4852,13.481045 199.8791,14.789065 200.831,10.28993 C201.4879,7.2325 204.91755,6.400435 207.38955,6.400435 C210.3248,6.400435 212.87515,7.15644 212.34045,10.59187 L207.9001,10.59187" id="Fill-14" fill="#FFFFFF" mask="url(#mask-2)"></path>
                    <path d="M14.407955,1.88897 C12.85907,1.000435 11.068175,0.486445 9.158575,0.486445 C4.3690255,0.486445 0.00011524425,4.256085 0.00011524425,10.08399 C0.00011524425,15.910738 4.721673,20.6345998 10.548425,20.6345998 L21.10019,20.6345998 C15.26998,20.6345998 10.548425,15.910738 10.548425,10.08399 C10.548425,6.18758 12.65163,3.24309 14.41602,1.905105 L14.407955,1.88897" id="Fill-15" fill="#FFFFFF" mask="url(#mask-2)"></path>
                    <path d="M16.38082,18.747936 C17.9274,19.635317 19.722905,20.143544 21.63711,20.143544 C26.417445,20.143544 30.792115,16.3762095 30.792115,10.552915 C30.792115,4.725015 26.07056,0 20.24381,0 L9.698955,0 C15.519945,0 20.24381,4.725015 20.24381,10.552915 C20.24381,14.44587 18.144055,17.383444 16.38082,18.7260395 L16.38082,18.747936" id="Fill-16" fill="#FFFFFF" mask="url(#mask-2)"></path>
                    <path d="M214.5998,7.78625 C214.5998,6.719085 215.4745,5.854755 216.544,5.854755 C217.60885,5.854755 218.48125,6.719085 218.48125,7.78625 C218.48125,8.855715 217.60885,9.729265 216.544,9.729265 C215.4745,9.729265 214.5998,8.855715 214.5998,7.78625 L214.5998,7.78625 Z M218.17355,7.78625 C218.17355,6.841245 217.489,6.162455 216.544,6.162455 C215.59895,6.162455 214.9075,6.841245 214.9075,7.78625 C214.9075,8.741625 215.59895,9.42502 216.544,9.42502 C217.489,9.42502 218.17355,8.741625 218.17355,7.78625 L218.17355,7.78625 Z M216.10375,8.884525 L215.8145,8.884525 L215.8145,6.662615 L216.7687,6.662615 C217.3449,6.662615 217.5466,6.88158 217.5466,7.280325 C217.5466,7.705575 217.24925,7.87153 216.8586,7.90034 L217.51665,8.884525 L217.20315,8.884525 L216.5797,7.90034 L216.10375,7.90034 L216.10375,8.884525 Z M216.49095,7.63989 C216.80445,7.63989 217.24005,7.689445 217.24005,7.27802 C217.24005,6.963405 216.97845,6.91961 216.70995,6.91961 L216.10375,6.91961 L216.10375,7.63989 L216.49095,7.63989 L216.49095,7.63989 Z" id="Fill-17" fill="#FFFFFF" mask="url(#mask-2)"></path>
                </g>
                <line x1="149.5" y1="-5.88418203e-15" x2="149.5" y2="31" id="Line" stroke="#FFFFFF" stroke-linecap="square"></line>
                <g id="Group" fill="#FFFFFF" fill-rule="nonzero">
                    <g id="FINAL_TWO_COLOR">
                        <polygon id="Path" points="73.8181818 19.8070953 82 19.8070953 82 23 70 23 70 7 73.8181818 7"></polygon>
                        <polygon id="Path" points="54.7407407 23 52.1481481 13.1552106 49.2222222 23 45 23 49.8518519 7 53.8888889 7 56.8518519 17.1286031 59.7777778 7 63.9074074 7 68 23 64.2037037 23 61.5555556 13.1552106 58.5185185 23"></polygon>
                        <path d="M87.3973888,16.7193717 L87.3973888,23.1277487 L83.6062831,23.1277487 L83.6062831,16.7193717 C81.5605875,13.7109948 79.0456956,10.0973822 77,7.10680628 L81.6168911,7.10680628 L85.5769074,13.2125654 C86.871889,11.2010471 88.2982456,9.08272251 89.5744594,7.10680628 L94.0975112,7.10680628 L87.3973888,16.7193717 Z M106.897185,23.1277487 L102.74949,23.1277487 L101.736026,21.9528796 C100.572419,22.860733 98.9771522,23.4125654 97.3443492,23.4125654 C93.9473684,23.4125654 91.75153,21.6502618 91.75153,18.7842932 C91.75153,16.0429319 94.1350469,14.7968586 95.0171359,14.2272251 C93.9473684,13.1591623 93.4781722,11.9664921 93.4781722,10.8628272 C93.4781722,8.40628272 95.6177071,7 98.2639739,7 C99.8592411,7 101.642187,7.53403141 103.237454,8.67329843 L101.604651,11.3256545 C100.347205,10.2219895 98.99592,9.77696335 98.1325989,9.77696335 C97.3068135,9.77696335 96.8000816,10.1863874 96.8000816,10.8272251 C96.8000816,11.4858639 97.1379029,11.8774869 97.5320277,12.3403141 L101.811098,17.2356021 C102.261526,16.452356 102.636883,15.0104712 102.636883,15.0104712 L105.677275,15.7937173 C105.677275,15.7937173 105.264382,17.7874346 103.9694,19.6921466 L106.897185,23.1277487 Z M96.9502244,16.4879581 C95.7678499,17.1465969 95.2048144,17.8586387 95.2048144,18.7486911 C95.2048144,19.8879581 96.1995104,20.4397906 97.3443492,20.4397906 C98.1325989,20.4397906 99.0146879,20.1905759 99.7654019,19.7099476 L96.9502244,16.4879581 Z M110.969808,17.2356021 L110.969808,23.1277487 L107.178703,23.1277487 L107.178703,7.10680628 L114.79845,7.10680628 C118.927377,7.10680628 121.461036,8.92251309 121.404733,12.1267016 C121.348429,14.6544503 119.039984,16.3455497 117.613627,16.6659686 C117.857609,17.0041885 119.809466,20.1193717 123,22.0240838 L120.109751,24 C117.444716,22.7717277 114.629539,18.7486911 113.672379,17.2712042 L110.969808,17.2712042 L110.969808,17.2356021 Z M110.969808,13.9602094 L115.155039,13.9602094 C116.525092,13.9602094 117.594859,13.1591623 117.594859,12.1089005 C117.594859,10.9874346 116.675235,10.3287958 115.079967,10.3287958 L110.969808,10.3287958 L110.969808,13.9602094 Z" id="Shape"></path>
                        <path d="M12.8545006,23.5819975 L6.43649815,30 L10.7274969,30 L15,25.7274969 L19.2725031,30 L23.5635018,30 L15,21.4364982 L12.8545006,23.5819975 Z M21.4364982,15 L30,23.5635018 L30,19.2725031 L25.7274969,15 L30,10.7274969 L30,6.43649815 L21.4364982,15 Z M0,10.7274969 L4.27250308,15 L0,19.2725031 L0,23.5635018 L8.56350185,15 L0,6.43649815 L0,10.7274969 Z M19.2725031,2.84217094e-14 L15,4.27250308 L10.7274969,2.84217094e-14 L6.43649815,2.84217094e-14 L15,8.56350185 L23.5635018,2.84217094e-14 L19.2725031,2.84217094e-14 Z M27.8545006,0 L15,12.8545006 L2.14549938,0 L0,0 L0,2.14549938 L12.8545006,15 L0,27.8545006 L0,30 L2.14549938,30 L15,17.1454994 L27.8545006,30 L30,30 L30,27.8545006 L17.1454994,15 L30,2.14549938 L30,0 L27.8545006,0 Z" id="Shape"></path>
                        <path d="M43.7669903,7 C42.5631068,10.2070875 41.4757282,14.2469546 40.0194175,17.7021041 C38.5631068,14.2469546 37.4757282,10.1893688 36.2718447,7 L32,7 L37.592233,23 L38.4271845,23 L39.9805825,23 L40.0194175,23 L41.5728155,23 L42.407767,23 L48,7 L43.7669903,7 Z" id="Path"></path>
                    </g>
                </g>
            </g>
        </g>
    </g>
</svg>