<svg height="50" viewBox="0 0 53 50" width="53" xmlns="http://www.w3.org/2000/svg"><path d="m715.882295 1517c1.27928 0 2.505987-.33055 3.680121-.99165l11.434663-6.36743c1.033939-.57411 1.783107-1.26566 2.247503-2.07464.464396-.80897.696594-1.76148.696594-2.85751v-33.01148c0-1.21782-.372393-2.19207-1.117179-2.92276-.744787-.73069-1.75682-1.09603-3.036101-1.09603-.543256 0-1.060225.10003-1.550908.3001s-1.051463.47408-1.682341.82203l-11.671243 6.44572-12.407266-7.2808c-1.139086-.6437-2.365793-.96555-3.680122-.96555-1.261756 0-2.409603.29576-3.443542.88727l-11.408377 6.39352c-1.033939.57412-1.783106 1.24826-2.247503 2.02245-.464396.77418-.696594 1.70929-.696594 2.80532v33.16806c0 1.23521.372393 2.21381 1.11718 2.9358.744786.72199 1.75682 1.08299 3.0361 1.08299.543256 0 1.064607-.09569 1.564052-.28706s1.055844-.45233 1.669198-.78288l11.30323-6.13257 12.433553 6.91545c1.226707.6611 2.479701.99165 3.758982.99165zm-28.432347-7.84314c-.378397 0-.567595-.26299-.567595-.78899v-27.64092c0-.43833.073099-.7846.219298-1.03883s.408497-.48655.786894-.69694l8.126935-4.76024c.120399-.0526.232198-.11397.335397-.1841s.214998-.1315.335398-.18409v30.27088l-8.642931 4.83914c-.223599.12273-.421397.18409-.593396.18409zm24.922601 0-.207391-.10948-.219959-.12237c-.15083-.08587-.29328-.16315-.427351-.23185l-8.949221-5.15221v-28.69781c.117312.06869.238814.13739.364505.20609.125692.06869.247193.14598.364505.23185l9.074912 5.4871zm5.882353 0v-29.40807l8.642931-4.72492c.189198-.12049.352597-.18073.490196-.18073.206398 0 .369797.07315.490196.21946s.180599.32274.180599.52929v26.82616c0 .43032-.0731.77027-.219299 1.01986-.146199.24958-.408496.47765-.786893.68421l-7.688339 4.41508c-.171999.10328-.352597.21086-.541796.32274-.189198.11189-.378397.21086-.567595.29692z" fill="#fff" transform="translate(-681 -1467)"/></svg>